<svg xmlns="http://www.w3.org/2000/svg" fill-rule="evenodd" stroke-linejoin="round" stroke-miterlimit="2" clip-rule="evenodd" viewBox="0 0 3000 2160" id="research-analysis-report">
  <g transform="matrix(2 0 0 2 -3200 0)">
    <rect width="1500" height="1080" x="1600" fill="none"></rect>
    <g transform="translate(-57.009 -21.25)">
      <g transform="translate(-471.193 -223.603)scale(1.24047)">
        <path fill="#e1e3ee" d="M2508.65,808.01C2508.65,808.01 2583.53,762.18 2567.48,752.077C2530.92,729.056 2477.07,704.406 2477.07,704.406L2434.95,755.184L2508.65,808.01Z" transform="translate(1.997 116.694)"></path>
        <path fill="#e1e3ee" d="M2727.03,279.563C2754.15,295.171 2763.41,358.122 2735.55,386.181L2613.13,327.207C2613.13,327.207 2604.83,282.433 2646.51,271.378C2688.18,260.322 2699.9,263.954 2727.03,279.563Z" transform="translate(425.806 197.387)scale(.80614)"></path>
        <g transform="translate(-231.794 -29.887)">
          <path fill="#f2f3f7" d="M2921.34,-932.769L2590.65,-932.769C2560.64,-921.249 2549.68,-891.314 2548.09,-863.706C2539.81,-720.286 2604.35,-586.397 2562.25,-501.481L2892.94,-501.481C2935.55,-610.673 2869.56,-735.011 2880.49,-876.292C2882.29,-899.504 2890.83,-923.531 2921.34,-932.769Z" transform="matrix(.86603 .5 -.16666 1.12069 170.56 37.312)"></path>
          <path fill="#e1e3ee" d="M2444.52,904.206C2338.57,854.827 2239.57,798.755 2145.73,737.701C2161.85,744.968 2181.4,747.165 2206.5,741.163L2429.58,858.57L2444.52,904.206Z" transform="translate(253.537 39.34)"></path>
          <path fill="#f2f3f7" d="M2174,744.171C2189.6,743.1 2206.23,734.902 2219.57,717.093L2505.96,882.438C2475.23,923.457 2411.15,909.478 2426.95,859.882L2174,744.171Z" transform="translate(253.537 39.34)"></path>
          <path fill="#e1e3ee" d="M2427.54,783.511C2407.22,784.907 2388.66,774.199 2381.43,756.89L2427.54,783.511Z"></path>
        </g>
        <g transform="translate(-2385.46 -463.652)scale(1.74154)">
          <g transform="translate(1712.84 345.322)scale(.43105)">
            <path fill="#40c3fd" d="M2758.87,551.646C2741.5,536.04 2724.13,520.433 2706.76,504.823C2706.14,580.919 2706.37,657.025 2704.88,733.113C2722.11,748.946 2739.36,764.774 2756.6,780.598C2758.12,704.29 2758.05,627.962 2758.87,551.646Z" transform="matrix(1 0 0 .60054 -434.754 166.76)"></path>
            <path fill="#7887da" d="M2758.87,443.08C2741.5,388.992 2724.13,334.903 2706.76,280.812C2706.58,357.809 2706.47,434.807 2706.37,511.805C2723.67,566.177 2740.99,620.548 2758.31,674.917C2758.46,597.638 2758.63,520.359 2758.87,443.08Z" transform="matrix(1 0 0 .17329 -434.754 421.263)"></path>
          </g>
          <g transform="translate(1712.84 345.322)scale(.43105)">
            <path fill="#40c3fd" d="M2765.27,595.009C2747.73,585.041 2730.2,575.072 2712.66,565.102C2708.59,642.171 2709.85,719.372 2707.46,796.488C2724.8,806.71 2742.15,816.93 2759.5,827.148C2761.88,749.777 2760.89,672.319 2765.27,595.009Z" transform="matrix(1 0 0 .93486 -362.111 -96.121)"></path>
            <path fill="#7887da" d="M2765.27,593.957C2747.73,568.307 2730.2,542.656 2712.66,517.005C2711.05,595.332 2710.25,673.673 2709.74,752.014C2727.16,777.917 2744.59,803.819 2762.02,829.721C2762.62,751.128 2763.54,672.535 2765.27,593.957Z" transform="matrix(1 0 0 .36333 -362.111 244.324)"></path>
          </g>
          <g transform="translate(1712.84 345.322)scale(.43105)">
            <path fill="#40c3fd" d="M2768.08,645.456C2750.56,634.696 2733.05,623.936 2715.53,613.177C2712.02,690.503 2712.63,767.927 2710.44,845.288C2727.8,856.306 2745.16,867.325 2762.51,878.346C2764.68,800.722 2764.31,723.035 2768.08,645.456Z" transform="matrix(1 0 0 .86747 -289.469 -43.13)"></path>
            <path fill="#7887da" d="M2768.08,696.698C2750.56,674.861 2733.05,653.026 2715.53,631.19C2713.78,709.554 2713.02,787.935 2712.46,866.315C2729.86,888.437 2747.27,910.558 2764.67,932.681C2765.32,854.014 2766.2,775.346 2768.08,696.698Z" transform="matrix(1 0 0 .42745 -289.469 218.979)"></path>
          </g>
          <g transform="translate(1712.84 345.322)scale(.43105)">
            <path fill="#40c3fd" d="M2773.37,674.575C2755.84,665.053 2738.32,655.532 2720.8,646.012C2715.12,723.807 2715.74,801.839 2713.3,879.759C2730.58,889.502 2747.85,899.247 2765.13,908.996C2767.6,830.845 2767.32,752.578 2773.37,674.575Z" transform="matrix(1 0 0 .97705 -219.435 -129.297)"></path>
            <path fill="#7887da" d="M2773.37,869.103C2755.85,836.105 2738.32,803.108 2720.8,770.113C2719.13,849.347 2717.99,928.591 2717.16,1007.84C2734.59,1041.02 2752.01,1074.21 2769.43,1107.4C2770.35,1027.96 2771.59,948.527 2773.37,869.103Z" transform="matrix(1 0 0 .28193 -219.435 284.771)"></path>
          </g>
        </g>
        <path fill="#4b61dc" d="M2486.83,479.333C2487.32,473.84 2486.44,468.063 2484.33,462.968C2483.3,460.497 2481.91,457.988 2479.84,456.242C2445.91,427.681 2411.97,399.121 2378.04,370.559C2376.19,369.004 2373.76,368.414 2371.76,370.073C2371.26,370.484 2370.84,370.98 2370.48,371.512C2368.91,373.831 2368.35,376.775 2368.12,379.518C2367.67,385.07 2368.65,390.888 2370.84,396.009C2371.89,398.48 2373.3,400.993 2375.38,402.746C2409.24,431.212 2443.1,459.675 2476.96,488.14C2478.79,489.675 2481.2,490.298 2483.18,488.658C2483.68,488.253 2484.09,487.765 2484.45,487.242C2486.01,484.952 2486.58,482.043 2486.83,479.333Z" transform="matrix(1.13823 0 0 .71544 -347.235 114.404)"></path>
        <path fill="#abb3db" d="M2468.36,495.139C2468.57,489.845 2467.29,484.379 2465.02,479.609C2463.86,477.168 2462.37,474.738 2460.29,472.972C2427.26,444.94 2394.24,416.901 2361.24,388.837C2360.68,388.362 2360.07,387.937 2359.4,387.628C2357.26,386.636 2355.18,387.409 2353.91,389.397C2352.59,391.467 2352.21,394.078 2352.11,396.483C2351.88,401.761 2353.07,407.222 2355.3,412.003C2356.43,414.425 2357.89,416.841 2359.95,418.588C2392.97,446.61 2426.02,474.605 2459.07,502.592C2459.64,503.073 2460.26,503.502 2460.93,503.818C2463.17,504.863 2465.36,504.06 2466.66,501.953C2467.89,499.944 2468.26,497.455 2468.36,495.139Z" transform="matrix(.8051 0 0 .52207 396.664 416.841)"></path>
        <path fill="#abb3db" d="M2473.92,614.032C2474.11,608.759 2472.83,603.321 2470.56,598.573C2469.4,596.144 2467.91,593.724 2465.84,591.963C2432.71,563.82 2399.57,535.695 2366.42,507.569C2365.86,507.088 2365.24,506.658 2364.56,506.343C2362.33,505.297 2360.16,506.127 2358.89,508.237C2357.68,510.257 2357.32,512.746 2357.22,515.062C2357.01,520.334 2358.26,525.78 2360.52,530.534C2361.68,532.968 2363.17,535.386 2365.25,537.145C2398.42,565.231 2431.6,593.318 2464.76,621.423C2465.32,621.901 2465.94,622.329 2466.61,622.644C2468.82,623.684 2470.99,622.9 2472.27,620.803C2473.48,618.804 2473.84,616.329 2473.92,614.032Z" transform="matrix(.8051 0 0 .52207 505.058 416.841)"></path>
        <path fill="#abb3db" d="M2466,501.28C2466.31,496.063 2465.1,490.648 2462.88,485.936C2461.73,483.507 2460.25,481.096 2458.18,479.346C2425.1,451.401 2392.04,423.449 2358.99,395.47C2358.43,394.995 2357.82,394.571 2357.15,394.264C2354.98,393.269 2352.85,394.029 2351.53,396C2350.16,398.033 2349.7,400.625 2349.55,403.026C2349.21,408.246 2350.31,413.682 2352.48,418.432C2353.58,420.845 2355.02,423.247 2357.07,424.974C2390.16,452.853 2423.28,480.705 2456.4,508.548C2458.27,510.12 2460.88,511.04 2462.97,509.312C2463.43,508.935 2463.82,508.476 2464.14,507.981C2465.43,506.027 2465.86,503.572 2466,501.28Z" transform="matrix(.8051 0 0 .52207 396.664 438.224)"></path>
        <path fill="#abb3db" d="M2471.86,619.725C2472.13,614.558 2470.89,609.207 2468.67,604.553C2467.52,602.142 2466.04,599.751 2463.98,598.01C2430.79,569.945 2397.59,541.898 2364.39,513.851C2363.82,513.37 2363.2,512.94 2362.52,512.624C2360.28,511.577 2358.07,512.344 2356.73,514.428C2355.47,516.39 2355.05,518.841 2354.92,521.13C2354.61,526.316 2355.79,531.701 2358,536.389C2359.14,538.807 2360.62,541.201 2362.69,542.938C2395.94,570.889 2429.2,598.839 2462.44,626.809C2464.28,628.353 2466.86,629.321 2468.93,627.619C2469.38,627.251 2469.76,626.802 2470.08,626.317C2471.33,624.396 2471.74,621.976 2471.86,619.725Z" transform="matrix(.8051 0 0 .52207 505.058 438.224)"></path>
        <path fill="#abb3db" d="M2462.66,506.699C2462.81,504.909 2462.75,503.103 2462.54,501.32C2462.39,500.008 2462.15,498.706 2461.84,497.423C2460.76,492.999 2458.74,488.056 2455.14,485.041C2421.98,457.278 2388.83,429.507 2355.7,401.708C2355.14,401.234 2354.52,400.814 2353.84,400.51C2351.64,399.517 2349.46,400.279 2348.06,402.229C2346.63,404.226 2346.09,406.799 2345.87,409.201C2345.39,414.412 2346.4,419.895 2348.56,424.653C2349.62,426.991 2351.03,429.307 2353.02,430.967C2386.22,458.597 2419.45,486.199 2452.68,513.793C2454.6,515.381 2457.23,516.255 2459.39,514.585C2459.86,514.219 2460.27,513.77 2460.62,513.282C2461.96,511.389 2462.47,508.972 2462.66,506.699Z" transform="matrix(.8051 0 0 .52207 396.664 459.607)"></path>
        <path fill="#abb3db" d="M2468.98,624.271C2469.11,622.519 2469.03,620.753 2468.81,619.011C2468.64,617.724 2468.39,616.447 2468.07,615.189C2466.96,610.813 2464.92,605.963 2461.35,602.976C2428.07,575.083 2394.77,547.21 2361.48,519.337C2359.59,517.759 2356.98,516.844 2354.85,518.53C2354.39,518.898 2353.99,519.347 2353.65,519.834C2352.34,521.733 2351.85,524.142 2351.66,526.405C2351.52,528.056 2351.56,529.719 2351.73,531.366C2351.86,532.668 2352.08,533.962 2352.37,535.239C2353.41,539.762 2355.43,544.829 2359.12,547.891C2392.5,575.6 2425.88,603.309 2459.24,631.037C2461.17,632.639 2463.86,633.567 2466.01,631.792C2466.46,631.418 2466.85,630.965 2467.17,630.475C2468.37,628.662 2468.82,626.405 2468.98,624.271Z" transform="matrix(.8051 0 0 .52207 505.058 459.607)"></path>
      </g>
      <g transform="translate(1378.8 -476.608)scale(1.58202)">
        <ellipse cx="877.721" cy="889.003" fill="#e1e3ee" rx="21.115" ry="9.004" transform="translate(-9.924 .883)"></ellipse>
        <ellipse cx="877.721" cy="889.003" fill="#e1e3ee" rx="21.115" ry="9.004" transform="matrix(1.34909 0 0 1.24436 -300.985 -202.693)"></ellipse>
        <g transform="rotate(1.309 878.197 836.015)">
          <path fill="#7887da" d="M838.433,898.119C833.162,887.161 815.313,861.946 826.27,847.845C836.404,834.805 850.049,852.676 852.971,867.264C852.971,867.264 844.283,804.651 865.345,803.464C886.407,802.277 879.17,842.957 875.433,859.855C875.433,859.855 893.722,826.362 906.47,838.374C919.218,850.386 877.53,902.745 877.53,902.745C874.744,907.718 867.016,913.537 857.893,913.593C850.348,913.639 842.025,905.587 838.433,898.119Z" transform="translate(12.374 -23.201)"></path>
          <path fill="#f2f3f7" d="M878.738,795.336C878.775,794.743 879.287,794.293 879.879,794.331C880.471,794.368 880.921,794.879 880.884,795.471C880.884,795.471 876.527,864.212 869.915,890.957C869.773,891.533 869.19,891.885 868.614,891.743C868.038,891.6 867.686,891.017 867.828,890.441C874.413,863.803 878.738,795.336 878.738,795.336Z"></path>
          <path fill="#f2f3f7" d="M851.167 841.899C851.041 841.32 851.409 840.747 851.989 840.621 852.569 840.495 853.142 840.863 853.268 841.443 853.268 841.443 855.421 851.349 860.07 860.615 863.096 866.647 867.16 872.44 872.452 874.865 872.992 875.113 873.229 875.751 872.982 876.291 872.735 876.83 872.096 877.067 871.557 876.82 865.866 874.212 861.402 868.065 858.148 861.579 853.376 852.068 851.167 841.899 851.167 841.899ZM874.738 862.478C874.186 862.696 873.561 862.426 873.342 861.875 873.123 861.323 873.393 860.698 873.945 860.479 873.945 860.479 896.89 851.407 905.683 833.186 905.941 832.651 906.584 832.427 907.119 832.685 907.653 832.943 907.878 833.586 907.62 834.12 898.498 853.021 874.738 862.478 874.738 862.478Z"></path>
        </g>
        <g transform="translate(-13.141 8.42)">
          <path fill="#10243e" d="M890.496,864.055C903.226,863.912 899.717,872.701 907.727,877.88C915.065,882.625 914.901,892.996 903.139,895.137C891.378,897.278 881.4,896.939 873.266,894.478C858.592,890.037 861.515,879.578 870.899,876.523C878.665,873.996 881.049,864.16 890.496,864.055Z" transform="translate(8.56 .309)"></path>
          <ellipse cx="901.391" cy="872.661" fill="#e1e3ee" rx="1.934" ry="1.863" transform="translate(-466.967 -452.088)scale(1.51916)"></ellipse>
          <ellipse cx="906.34" cy="878.462" fill="#e1e3ee" rx="1.007" ry="1.354" transform="matrix(1.46885 0 0 1 -424.468 0)"></ellipse>
        </g>
      </g>
      <g transform="translate(1384.48 -342.779)scale(1.63775)">
        <g transform="matrix(1.15929 -2.19294 2.53432 1.4778 -2287.87 830.146)">
          <path fill="#10243e" d="M2305.78,372.035L2305.78,372.032L2339.15,385.917L2339.16,385.958C2356.62,394 2370.36,411.697 2376.47,437.414C2389.1,490.63 2364.24,558.162 2320.99,588.128C2299.38,603.105 2277.23,605.88 2258.91,598.264L2226.84,584.919C2245.15,592.516 2267.28,589.735 2288.88,574.767C2332.13,544.802 2356.99,477.27 2344.36,424.053C2338.11,397.719 2323.84,379.794 2305.78,372.035Z" transform="matrix(.10864 .22439 -.2611 .0826 585.993 273.26)"></path>
          <path fill="#4b61dc" d="M2288.72,589.005C2288.72,589.005 2311.75,724.226 2322.22,786.59C2326.32,811.024 2400.52,786.54 2389.46,757.069L2318.81,580.674C2316.63,575.908 2290.34,572.023 2288.72,589.005Z" transform="matrix(.10864 .22439 -.2611 .0826 585.993 273.26)"></path>
          <path fill="#f2f3f7" d="M2266.47,775.738L2280.83,768.01C2280.83,768.01 2271.88,714.95 2266.35,712.543C2260.83,710.136 2266.47,775.738 2266.47,775.738Z" transform="matrix(.14245 .21139 -.2443 .11175 507.26 292.944)"></path>
          <path fill="#10243e" d="M2321.95 786.216C2319.66 774.539 2330.62 764.968 2350.43 757.233 2370.25 749.499 2386.51 752.913 2390.58 760.252 2394.64 767.591 2391.68 782.873 2363.86 791.578 2336.03 800.283 2324.17 797.492 2321.95 786.216ZM2303.3 381.048C2303.3 381.048 2218.48 364.906 2199.39 466.523 2185.92 538.234 2229.54 572.931 2229.54 572.931 2229.54 572.931 2203.11 537.196 2226.84 466.523 2250.56 395.85 2303.3 381.048 2303.3 381.048Z" transform="matrix(.10864 .22439 -.2611 .0826 585.993 273.26)"></path>
          <path fill="#e1e3ee" fill-opacity=".62" d="M2213.2,469.021C2223.03,427.835 2266.52,373.983 2295.46,380.234C2324.41,386.485 2353.43,441.957 2337.81,500.033C2322.2,558.108 2262.45,589.784 2239.09,578.364C2215.73,566.944 2196.01,541.003 2213.2,469.021Z" transform="matrix(.10864 .22439 -.2611 .0826 585.993 273.26)"></path>
          <path fill="#4b61dc" d="M2226.84,584.919C2208.48,577.307 2193.96,559.274 2187.64,532.639C2175.01,479.423 2199.86,411.89 2243.11,381.925C2264.96,366.789 2287.35,364.115 2305.78,372.035C2323.84,379.794 2338.11,397.719 2344.36,424.053C2356.99,477.27 2332.13,544.802 2288.88,574.767C2267.28,589.735 2245.15,592.516 2226.84,584.919ZM2200.77,523.539C2211.28,567.836 2249.05,583.549 2285.05,558.607C2321.05,533.664 2341.74,477.45 2331.22,433.153C2320.71,388.856 2282.95,373.143 2246.95,398.086C2210.95,423.029 2190.26,479.243 2200.77,523.539Z" transform="matrix(.10864 .22439 -.2611 .0826 585.993 273.26)"></path>
        </g>
        <path fill="#e1e3ee" d="M-559.679,1046.16C-514.292,1044.38 -507.043,1075.53 -513.537,1113.28C-518.51,1142.19 -469.011,1151.64 -488.834,1170.1C-549.18,1226.31 -568.147,1157.31 -568.147,1122.32C-568.147,1087.33 -600.976,1047.77 -559.679,1046.16Z" transform="matrix(.64922 -.37483 .97832 .21777 -225.078 348.173)"></path>
        <g transform="rotate(-12.534 700.332 1353.79)scale(.97792)">
          <path fill="#10243e" d="M736.698,792.702C736.698,792.702 770.343,791.121 784.212,786.797C798.081,782.472 802.68,797.544 785.638,809.198C768.596,820.852 747.003,827.8 741.229,821.767C735.455,815.735 736.698,792.702 736.698,792.702Z" transform="matrix(.85275 .38465 -.37562 .83274 369.513 -173.496)"></path>
          <g transform="translate(1.803 24.372)">
            <path fill="#4b61dc" d="M734.631,606.133C734.631,606.133 753.831,656.215 749.641,684.745C745.506,712.899 740.132,736.569 733.238,758.525C733.238,758.525 705.586,772.159 678.297,751.709L698.827,678.56C698.827,678.56 690.989,626.438 685.023,610.278C685.023,610.278 698.619,595.352 734.631,606.133Z"></path>
            <clipPath id="a">
              <path d="M734.631,606.133C734.631,606.133 753.831,656.215 749.641,684.745C745.506,712.899 740.132,736.569 733.238,758.525C733.238,758.525 705.586,772.159 678.297,751.709L698.827,678.56C698.827,678.56 690.989,626.438 685.023,610.278C685.023,610.278 698.619,595.352 734.631,606.133Z"></path>
            </clipPath>
            <g clip-path="url(#a)">
              <path fill="#10243e" d="M743.106,647.163L750.377,663.318C750.377,663.318 709.709,676.73 677.086,663.641L673.71,639.873L743.106,647.163Z" transform="translate(-.19 -31.632)"></path>
            </g>
          </g>
        </g>
        <g transform="rotate(14.561 616.293 -239.85)scale(.97792)">
          <path fill="#10243e" d="M736.698,792.702C736.698,792.702 770.343,791.121 784.212,786.797C798.081,782.472 802.68,797.544 785.638,809.198C768.596,820.852 747.003,827.8 741.229,821.767C735.455,815.735 736.698,792.702 736.698,792.702Z" transform="rotate(-7.242 1426.737 430.389)scale(.88992)"></path>
          <g transform="rotate(9.262 577.482 634.104)">
            <path fill="#4b61dc" d="M734.631,606.133C734.631,606.133 756.723,723.535 758.855,769.276C758.855,769.276 742.938,792.467 705.489,787.466C705.489,787.466 694.729,651.511 680.982,614.273C680.982,614.273 698.619,595.352 734.631,606.133Z"></path>
            <clipPath id="b">
              <path d="M734.631,606.133C734.631,606.133 756.723,723.535 758.855,769.276C758.855,769.276 742.938,792.467 705.489,787.466C705.489,787.466 694.729,651.511 680.982,614.273C680.982,614.273 698.619,595.352 734.631,606.133Z"></path>
            </clipPath>
            <g clip-path="url(#b)">
              <path fill="#10243e" d="M743.106,647.163L752.477,672.696C752.477,672.696 730.331,699.117 686.1,670.931L682.786,649.636L743.106,647.163Z" transform="matrix(.95018 -.31171 .33464 1.02005 -191.331 179.326)"></path>
            </g>
          </g>
        </g>
        <path fill="#7887da" d="M693.584,496.165C707.105,505.453 707.503,524.39 707.619,543.332C707.71,558.206 695.072,585.398 695.072,585.398L712.722,643.705C712.722,643.705 608.663,694.165 543.763,612.351L564.548,544.804L589.13,466.608C589.13,466.608 676.039,484.115 693.584,496.165Z" transform="rotate(7.656 -69.423 286.707)scale(.8613)"></path>
        <path fill="#10243e" d="M797.504,560.403C797.896,558.496 756.371,562.73 748.445,558.944C742.082,555.904 745.918,556.609 741.497,552.581C741.497,552.581 744.426,568.161 758.266,573.596C796.569,588.636 796.892,563.376 797.504,560.403Z" transform="matrix(.50992 1.11114 -.93715 .43007 686.817 -505.334)"></path>
        <g transform="rotate(49.108 545.654 549.257)">
          <path fill="#88daff" d="M824.522,573.568C824.522,573.568 808.385,572.911 803.05,559.667C803.05,559.667 806.529,543.729 816.486,535.514C830.139,524.249 830.828,535.956 832.594,538.296C832.594,538.296 835.605,534.782 841.64,540.872C847.676,546.961 844.224,552.25 844.224,552.25C844.224,552.25 853.539,558.714 843.841,560.956C843.841,560.956 835.54,572.233 824.522,573.568Z" transform="scale(.8613)rotate(-3.093 1595.6 1694.376)"></path>
          <path fill="#7887da" d="M555.223,522.837C555.223,522.837 591.846,524.009 607.073,521.614C624.389,518.89 631.104,497.418 632.228,476.87C632.228,476.87 644.389,465.446 660.364,475.064C670.447,481.134 679.398,492.429 670.457,512.274C670.457,512.274 662.727,539.487 632.691,555.887C611.782,567.304 580.334,562.339 554.981,556.241C554.981,556.241 542.576,537.252 555.223,522.837Z" transform="rotate(34.001 575.143 507.805)"></path>
        </g>
        <g transform="rotate(7.655 419.485 558.047)">
          <circle cx="542.636" cy="465.485" r="45.128" fill="#88daff" transform="translate(7.65 -17.564)scale(.9943)"></circle>
          <path fill="#88daff" d="M779.395,423.19C779.395,423.19 790.293,417.298 795.504,422.034C800.715,426.77 782.333,440.987 782.333,440.987L779.395,423.19Z" transform="translate(-12.034 114.412)scale(.76696)"></path>
          <path fill="#10243e" d="M504.311,430.453C504.311,430.453 494.596,435.101 490.798,448.802C487,462.503 482.597,474.879 470.846,476.147C459.094,477.415 447.309,494.953 452.832,507.667C452.832,507.667 431.48,509.052 433.18,535.61C434.88,562.167 458.539,566.525 471.146,561.393C471.146,561.393 482.584,586.726 507.678,573.487C507.678,573.487 540.378,585.777 548.454,561.317C548.454,561.317 581.069,555.081 569.71,528.304C569.71,528.304 586.94,518.056 577.724,500.542C568.509,483.028 571.741,474.765 571.741,474.765C571.741,474.765 582.382,467.847 580.542,453.899C580.542,453.899 610.945,440.503 603.154,418.315C595.362,396.127 568.123,389.755 557.558,411.353C553.526,399.624 514.802,396.321 504.311,430.453Z" transform="translate(-17.674 -24.023)"></path>
        </g>
      </g>
      <ellipse cx="2506.29" cy="997.486" fill="#e1e3ee" rx="75.216" ry="35.206" transform="matrix(1.76594 0 0 1.73534 -1869.32 -766.315)"></ellipse>
      <g transform="translate(174.481 93.831)scale(.97933)">
        <path fill="#40c3fd" d="M2331.92,811.24C2337.29,805.78 2344.01,800.643 2352.06,795.99C2389.26,774.518 2444.32,769.583 2489.72,781.185L2527.06,761.898L2527.06,813.08L2439.56,858.28L2439.56,927.943C2407.89,927.943 2376.21,920.973 2352.06,907.033C2327.92,893.093 2315.85,874.805 2315.85,856.517L2315.85,811.24L2331.92,811.24ZM2527.06,907.033C2510.84,916.397 2491.22,922.616 2470.49,925.69C2491.71,922.526 2511.29,916.134 2527.06,907.033Z" transform="translate(-20.772 24.131)"></path>
        <path fill="#4b61dc" d="M2563.26,857.445C2562.86,875.423 2550.79,893.329 2527.06,907.033C2511.29,916.134 2491.71,922.526 2470.49,925.69C2460.36,927.192 2449.96,927.943 2439.56,927.943L2439.56,856.517L2527.06,806.001C2539.25,813.042 2548.37,821.192 2554.4,829.89L2563.27,829.89L2563.27,857.445L2563.26,857.445Z" transform="translate(-20.772 24.131)"></path>
        <path fill="#88daff" d="M453.305,2056.95C437.578,2043.33 427.845,2024.52 427.845,2003.75C427.845,1962.23 466.776,1928.51 514.728,1928.51C562.68,1928.51 601.611,1962.23 601.611,2003.75L514.728,2003.75L453.305,2056.95ZM514.728,2078.99C498.623,2078.99 483.536,2075.19 470.599,2068.57C483.858,2075.34 499.075,2078.99 514.728,2078.99Z" transform="matrix(1.00706 -.58142 1.16285 .67137 -429.636 -209.987)"></path>
        <path fill="#7887da" d="M2527.06,781.395C2575.35,809.275 2575.35,854.546 2527.06,882.427C2511.29,891.528 2491.71,897.92 2470.49,901.083C2460.36,902.586 2449.96,903.337 2439.56,903.337L2439.56,831.911L2527.06,781.395Z" transform="translate(-20.772 24.131)"></path>
      </g>
      <g transform="rotate(-30 2472.024 3585.22)scale(1.78322)">
        <circle cx="2144.31" cy="280.09" r="73.208" fill="#4b61dc" transform="translate(-18.874 -21.204)"></circle>
        <g transform="translate(1.94 -3.36)">
          <path fill="#f2f3f7" d="M1982.47,142.456C1997.66,142.456 2010,154.79 2010,169.982C2010,185.175 1997.66,223.18 1982.47,223.18C1967.28,223.18 1954.94,185.175 1954.94,169.982C1954.94,154.79 1967.28,142.456 1982.47,142.456Z" transform="rotate(30 1346.628 2077.595)scale(.56078)"></path>
          <circle cx="1982.47" cy="169.982" r="27.527" fill="#f2f3f7" transform="rotate(30 1016.745 2710.71)scale(.37882)"></circle>
        </g>
        <path fill="#4b61dc" d="M2121.8,306.453C2123.12,303.438 2125.69,301.556 2128.48,301.556C2131.27,301.556 2133.84,303.438 2135.16,306.453C2144.91,328.716 2161.89,367.49 2161.89,367.49L2095.06,367.49C2095.06,367.49 2112.05,328.716 2121.8,306.453Z" transform="matrix(-1 0 0 -.81615 4253.92 599.916)"></path>
      </g>
    </g>
  </g>
</svg>
